<?xml version="1.0" standalone="no"?>
<!DOCTYPE svg PUBLIC "-//W3C//DTD SVG 20010904//EN"
 "http://www.w3.org/TR/2001/REC-SVG-20010904/DTD/svg10.dtd">
<svg version="1.0" xmlns="http://www.w3.org/2000/svg"
 width="500.000000pt" height="500.000000pt" viewBox="0 0 500.000000 500.000000"
 preserveAspectRatio="xMidYMid meet">
<metadata>
Created by potrace 1.11, written by Peter Selinger 2001-2013
</metadata>
<g transform="translate(0.000000,500.000000) scale(0.100000,-0.100000)"
fill="#000000" stroke="none">
<path d="M0 2500 l0 -2500 2500 0 2500 0 0 2500 0 2500 -2500 0 -2500 0 0
-2500z m4360 285 c-50 -50 -90 -95 -90 -100 0 -5 39 -49 87 -97 l88 -88 -88
-88 -88 -88 98 -97 98 -97 -985 -985 -985 -985 -982 982 -983 983 90 90 90 90
-100 100 -100 100 92 92 93 93 -90 90 -90 90 985 985 985 985 982 -982 983
-983 -90 -90z"/>
<path d="M1527 3832 l-957 -957 78 -78 77 -77 875 875 875 875 880 -880 880
-880 78 78 c42 42 77 82 77 87 0 6 -429 439 -953 963 l-952 952 -958 -958z"/>
<path d="M1607 3552 l-857 -857 87 -88 88 -87 787 787 788 788 780 -780 780
-780 75 75 75 75 -862 862 c-475 475 -867 863 -873 863 -6 0 -396 -386 -868
-858z"/>
<path d="M1722 3267 l-772 -772 768 -768 767 -767 773 773 772 772 -768 768
-767 767 -773 -773z m1051 -624 c4 -38 7 -84 7 -104 0 -32 -2 -35 -29 -35 -26
0 -31 4 -40 42 -21 82 -94 113 -208 89 -31 -7 -43 -54 -43 -176 l0 -109 60 0
60 0 0 48 0 48 34 -4 35 -4 3 -124 3 -124 -32 0 c-26 0 -33 4 -33 19 0 30 -37
68 -72 74 -57 8 -58 6 -58 -129 l0 -124 48 0 47 0 -1 -37 -1 -38 -157 -3 -156
-3 0 36 c0 27 4 35 18 35 47 0 50 17 54 323 l3 287 -37 0 c-38 0 -38 0 -38 40
l0 40 264 0 263 0 6 -67z"/>
<path d="M642 2587 c-39 -40 -72 -77 -72 -82 0 -6 37 -47 83 -93 l82 -82 80
80 80 80 -85 85 c-47 47 -87 85 -90 85 -3 0 -38 -33 -78 -73z"/>
<path d="M4160 2585 l-74 -75 74 -75 c41 -41 78 -74 82 -73 3 2 39 34 78 72
l72 69 -79 79 -78 78 -75 -75z"/>
<path d="M3267 1692 l-787 -787 -780 780 -780 780 -80 -80 -80 -80 858 -858
857 -857 868 868 867 867 -78 78 -77 77 -788 -788z"/>
<path d="M3358 1413 l-878 -878 -868 868 c-477 477 -872 867 -877 867 -13 0
-145 -132 -145 -145 0 -6 429 -439 952 -962 l953 -953 957 957 958 958 -82 82
c-46 46 -85 83 -88 83 -3 0 -400 -395 -882 -877z"/>
</g>
</svg>
